<svg width="16" height="16" viewBox="0 0 16 16" fill="none" xmlns="http://www.w3.org/2000/svg">
<path fill-rule="evenodd" clip-rule="evenodd" d="M4.49775 0.5H11.502C14.0528 0.5 15.4928 1.94675 15.5003 4.4975V11.5025C15.5003 14.0525 14.0528 15.5 11.502 15.5H4.49775C1.947 15.5 0.500252 14.0525 0.500252 11.5025V4.4975C0.500252 1.94675 1.947 0.5 4.49775 0.5ZM8.03705 12.395C8.3603 12.395 8.62955 12.155 8.65955 11.8325V4.19C8.68955 3.9575 8.5778 3.72425 8.3753 3.5975C8.16455 3.47 7.90955 3.47 7.7078 3.5975C7.50455 3.72425 7.3928 3.9575 7.41455 4.19V11.8325C7.4528 12.155 7.72205 12.395 8.03705 12.395ZM11.4878 12.395C11.8028 12.395 12.0721 12.155 12.1103 11.8325V9.3725C12.132 9.13175 12.0203 8.9075 11.817 8.78C11.6153 8.6525 11.3603 8.6525 11.1503 8.78C10.9471 8.9075 10.8353 9.13175 10.8653 9.3725V11.8325C10.8953 12.155 11.1646 12.395 11.4878 12.395ZM5.16453 11.8325C5.13453 12.155 4.86528 12.395 4.54203 12.395C4.21952 12.395 3.94952 12.155 3.92027 11.8325V6.65C3.89777 6.41675 4.00952 6.185 4.21277 6.0575C4.41453 5.93 4.67028 5.93 4.87278 6.0575C5.07453 6.185 5.18778 6.41675 5.16453 6.65V11.8325Z" fill="#707FDD"/>
</svg>
