<svg width="16" height="16" viewBox="0 0 16 16" fill="none" xmlns="http://www.w3.org/2000/svg">
<path fill-rule="evenodd" clip-rule="evenodd" d="M4.75237 0.499023H11.2549C13.7974 0.499023 15.4999 2.28402 15.4999 4.93902V11.0673C15.4999 13.7148 13.7974 15.499 11.2549 15.499H4.75237C2.20987 15.499 0.499872 13.7148 0.499872 11.0673V4.93902C0.499872 2.28402 2.20987 0.499023 4.75237 0.499023ZM7.99243 5.79479C7.63994 5.79479 7.34743 5.50154 7.34743 5.14229C7.34743 4.77479 7.63994 4.48229 8.00743 4.48229C8.36743 4.48229 8.65993 4.77479 8.65993 5.14229C8.65993 5.50154 8.36743 5.79479 7.99243 5.79479ZM8.65231 10.8348C8.65231 11.1948 8.35981 11.4873 7.99231 11.4873C7.63231 11.4873 7.33981 11.1948 7.33981 10.8348V7.51976C7.33981 7.15901 7.63231 6.85976 7.99231 6.85976C8.35981 6.85976 8.65231 7.15901 8.65231 7.51976V10.8348Z" fill="#A6ABC8"/>
</svg>
