<svg width="32" height="33" viewBox="0 0 32 33" fill="none" xmlns="http://www.w3.org/2000/svg">
<path d="M24 22.8334C23.7867 22.8334 23.5867 22.7667 23.4 22.6334C22.96 22.3 22.8667 21.6734 23.2 21.2334C25.2933 18.4467 25.2933 14.5534 23.2 11.7667C22.8667 11.3267 22.96 10.7 23.4 10.3667C23.84 10.0334 24.4667 10.1267 24.8 10.5667C27.4133 14.06 27.4133 18.94 24.8 22.4334C24.6 22.7 24.3067 22.8334 24 22.8334Z" fill="#66A7F2"/>
<path d="M26.4401 26.1666C26.2267 26.1666 26.0267 26.1 25.8401 25.9666C25.4001 25.6333 25.3067 25.0066 25.6401 24.5666C29.2001 19.82 29.2001 13.18 25.6401 8.43331C25.3067 7.99331 25.4001 7.36664 25.8401 7.03331C26.2801 6.69998 26.9067 6.79331 27.2401 7.23331C31.3334 12.6866 31.3334 20.3133 27.2401 25.7666C27.0534 26.0333 26.7467 26.1666 26.4401 26.1666Z" fill="#66A7F2"/>
<path d="M18.6933 5.53998C17.2 4.71331 15.2933 4.92664 13.3466 6.13998L9.45329 8.57998C9.18663 8.73998 8.87996 8.83331 8.57329 8.83331H7.33329H6.66663C3.43996 8.83331 1.66663 10.6066 1.66663 13.8333V19.1666C1.66663 22.3933 3.43996 24.1666 6.66663 24.1666H7.33329H8.57329C8.87996 24.1666 9.18663 24.26 9.45329 24.42L13.3466 26.86C14.52 27.5933 15.6666 27.9533 16.7333 27.9533C17.4266 27.9533 18.0933 27.7933 18.6933 27.46C20.1733 26.6333 21 24.9133 21 22.62V10.38C21 8.08664 20.1733 6.36664 18.6933 5.53998Z" fill="#66A7F2"/>
</svg>
